<?xml version="1.0" encoding="UTF-8"?>
<svg enable-background="new 0 0 0v0" version="1.1" viewBox="0 0 1200 1200" xml:space="preserve" xmlns="http://www.w3.org/2000/svg">

<style type="text/css">
	.st0{fill:none;stroke:#002333;stroke-width:40;}
	.st1{fill:none;stroke:#002333;stroke-width:20;}
	.st2{fill: #B4BEC9;}
	.st3{fill:none;stroke:#B4BEC9;stroke-width:80;}
</style>

<rect class="st2" width="100%" height="100%" rx="25%"/>
<path class="st0" d="M 350 850 v -600 s -25 0 -25 -25 v -50 s 0 -25 25 -25 h 500 s 25 0 25 25 v 50 s 0 25 -25 25 v 600 s 25 0 25 25 v 150 s 0 25 -25 25 h -500 s -25 0 -25 -25 v -150 s 2 -25 25 -25 v -50"/>
<line class="st0" x1="350" x2="850" y1="850" y2="850"/>
<line class="st0" x1="860" x2="860" y1="300" y2="350"/>
<line class="st0" x1="860" x2="860" y1="370" y2="500"/>
<line class="st1" x1="450" x2="750" y1="250" y2="250"/>
<polyline class="st3" points="300,600 600,450 900,600" />
<polyline class="st0" points="300,600 600,450 900,600" />
<line class="st3" x1="290" x2="290" y1="550" y2="650" />
<line class="st3" x1="910" x2="910" y1="550" y2="650" />

</svg>