<?xml version="1.0" encoding="UTF-8"?>
<svg enable-background="new 0 0 768 1024" version="1.1" viewBox="0 0 768 1024" xml:space="preserve" xmlns="http://www.w3.org/2000/svg">
<style type="text/css">
	.st0{fill:none;stroke:#000000;stroke-width:11;stroke-miterlimit:10;}
	.st1{display:none;fill:none;stroke:#000000;stroke-width:4;stroke-miterlimit:10;}
	.st2{stroke:#000000;stroke-width:11;stroke-miterlimit:10;}
	.st3{fill:#000000;stroke:#000000;stroke-width:11;stroke-miterlimit:10;}
	.st4{fill:none;}
	.st5{display:none;}
	.st6{font-family:'SairaCondensed-Bold';}
	.st7{font-size:100px;}
</style>
<path class="st0" d="m637 513.83 0.33 229.7s25.08-3.12 25.07 25.48 0 188.22 0 188.22-1.12 27.42-25.39 27.56-491.43 0-491.43 0-38.91 2.08-41.57-37.96l0.06-177.33s-0.11-25.86 24.94-25.86l0.33-229.79"/>
<line class="st0" x1="129" x2="640" y1="744" y2="744"/>
<line class="st0" x1="642" x2="642" y1="165" y2="275"/>
<line class="st0" x1="642" x2="642" y1="289" y2="329"/>
<path class="st0" d="m127.98 470.02v-335.35s-24 1.92-24-17.23v-39.83s-6.37-21.59 24-21.59h510s24-3.69 24 21.59l0.01 38.3s-0.34 19.15-24.01 18.77v335.35"/>
<path d="m382.41 124.98h-100.62c-1.79 0-3.6 0.04-5.38-0.01-4.52-0.11-10.26 0.09-10.11-2.06 0.15-2.1 5.82-1.99 10.36-2 35.25-0.02 70.5-0.03 105.75-0.04"/>
<path d="m382.41 124.98c33.54 0 68.55 0.01 102.09 0.01 1.79 0 3.6 0.04 5.38-0.01 4.52-0.11 10.26 0.09 10.11-2.06-0.15-2.1-5.82-1.99-10.36-2-35.25-0.02-73.45-0.03-108.7-0.04"/>
<path class="st2" d="M106.24,502.47c0.05,1.49,0.05,2.99,0.02,4.49l268.7-173.88v-4.62L106.24,502.47z"/>
<polygon class="st3" points="385.34 329.1 662.28 503.91 662.39 508.97 385.34 333.69"/>
<polygon points="122.5 466.31 133.45 466.31 133.45 470.24 122.5 477.31"/>
<polygon points="134.81 513.83 123.87 513.83 123.87 509.9 134.81 502.83"/>
<polygon points="643.41 466.3 632.49 466.3 632.49 470.23 643.41 477.29"/>
<polygon points="630 514.47 642.47 514.47 642.47 510.54 631.52 503.47"/>
</svg>
